<?xml version="1.0" encoding="utf-8"?>
<!-- Generator: Adobe Illustrator 17.0.0, SVG Export Plug-In . SVG Version: 6.00 Build 0)  -->
<!DOCTYPE svg PUBLIC "-//W3C//DTD SVG 1.1//EN" "http://www.w3.org/Graphics/SVG/1.1/DTD/svg11.dtd">
<svg version="1.1" id="Ebene_1" xmlns="http://www.w3.org/2000/svg" xmlns:xlink="http://www.w3.org/1999/xlink" x="0px" y="0px"
	 width="500px" height="560px" viewBox="0 0 500 560" enable-background="new 0 0 500 560" xml:space="preserve">
<g>
	<g>
		<g>
			<path fill="#939598" d="M373.59,313.11c-57.616,1.274-101.232,1.541-130.902,21.936h-10.733
				c-29.669-20.395-73.285-20.663-130.902-21.936c-17.762-0.391-34.31-3.259-49.145-7.326l55.695,114.852
				c71.932-1.611,124.804,37.624,124.804,37.624h1.477h6.881h1.473c0,0,52.869-39.236,124.801-37.624l55.702-114.852
				C407.908,309.851,391.352,312.719,373.59,313.11"/>
			<path fill="#FFFFFF" d="M237.627,302.792c-0.368-0.354-0.81-0.765-1.312-1.218C236.747,301.983,237.228,302.371,237.627,302.792"
				/>
			<path fill="#082E3F" d="M68.327,319.311l10.416,21.813c0,0,0.813,1.3,7.65,1.79c0,0,7.08,0,18.799-2.2
				c0,0-16.814-1.49-22.67-4.662c0,0,15.103-0.952,28.286-3.148c0,0-18.555,0.486-32.227-4.639c0,0,20.103,1.136,37.354-2.442
				C115.934,325.823,77.928,324.684,68.327,319.311"/>
			<path fill="#082E3F" d="M71.627,346.17l9.637,17.926c0,0,8.648-4.282,11.235-3.318c2.591,0.964,5.871,1.17,6.847,2.573
				c0.977,1.408-0.855,4.765-0.855,4.765l-13.463,3.383l2.066,1.35l4.929,0.487c0,0,9.787-0.474,10.771,1.109
				c0.985,1.589,1.25,7.024,1.25,7.024l-11.682,2.566l3.843-0.021c0,0,7.15-1.945,8.478-0.741c1.332,1.206,2.888,4.662,2.888,4.662
				l-10.277,8.781l-10.703-5.263l-1.634-4.716l-5.285-2.586l-7.142-8.232l-0.716-7.232l-5.029-6.294
				C66.783,362.393,70.609,347.675,71.627,346.17C72.641,344.671,71.627,346.17,71.627,346.17"/>
			<path fill="#939598" d="M105.922,381.946c0.029-0.001,0.063-0.005,0.091-0.005c0,0,1.448-8.629-2.955-9.505
				c-3.837-0.761-7.748-0.142-12.792-0.255c3.768-1.244,7.444-2.362,9.4-2.307c0,0,4.339-7.841-0.063-8.713
				c-4.402-0.879-13.398-2.798-17.279-0.433l-3.262-2.657l2.201,6.024c0,0,9.42-2.41,14.277-0.603
				c4.855,1.805,1.959,3.853,1.959,3.853s-16.554,4.218-18.457,4.309c-0.491,0.024-1.382-0.461-2.437-1.223
				c0.001-0.009,0.002-0.016,0.003-0.025l-0.148-0.084c-3.029-2.228-7.316-6.63-7.693-8.203c-0.513-2.156,2.098-9.187,4.725-14.948
				l-2.553-3.872c0,0-5.218,10.231-6.124,14.223c0,0-2.105,6.203,0.134,8.227c1.307,1.19,4.058,3.184,6.762,5.065
				c-0.001,0.049-0.002,0.087-0.003,0.138c0,0-1.511,9.585,0.727,11.613c2.252,2.045,7.393,3.875,9.487,4.798
				c0.031,0.2,0.997,6.266,3.129,7.147c2.573,1.065,10.076,3.134,10.943,3.386c1.623,0.469,9.911-9.355,13.347-10.622
				C109.342,387.274,107.989,383.69,105.922,381.946z M76.063,379.662c-0.389-1.638-0.188-2.78,0.17-5.765
				c0.903,0.605,1.64,1.093,2.076,1.379c0.791,0.515,4.023-0.458,7.815-1.713l0.292,0.55c0.28,0.773,1.031,1.255,1.849,1.171
				c2.722-0.282,7.952-1.531,11.656-0.151c4.856,1.806,2.905,4.674,2.905,4.674s-5.615,1.427-10.68,2.638l-0.275-0.059l0.086,0.104
				c-3.558,0.849-6.805,1.581-7.585,1.621C82.468,384.203,76.579,381.816,76.063,379.662z M105.481,386.884
				c0,0-8.152,5.996-9.519,6.565c-1.369,0.565-7.787-1.127-8.726-2.569c-0.565-0.865-1.103-2.158-1.495-3.298
				c2.181-0.505,5.243-1.49,8.374-2.499l0.233,0.279c0.408,0.489,2.006,0.072,2.58-0.207c1.915-0.917,2.557-1.594,5.624-1.561
				C106.574,383.646,105.481,386.884,105.481,386.884z"/>
			<path fill="#082E3F" d="M231.36,345.3l13.996-0.326c0,0,12.048-11.716,32.878-14.973c0,0-21.485,8.142-29.624,18.881
				c0,0,13.349-7.815,24.086-9.115c0,0-16.598,4.88-22.783,15.952c0,0,13.346-7.162,20.505-7.486c0,0-16.275,5.529-20.831,16.922
				c0,0,6.184-5.856,14.321-7.482c0,0-10.738,5.207-13.671,14.649l-3.256,62.739l-3.255,7.487l1.955-92.036
				c0,0-1.628-5.212-16.276-0.979c0,0-11.394-13.347-31.575-14.002C197.831,335.532,218.012,332.28,231.36,345.3"/>
			<path fill="#1C75BC" d="M453.724,232.155h-5.397c-0.577,0-1.049-0.477-1.049-1.055v-5.684c0-0.58,0.473-1.054,1.049-1.054h5.397
				c0.577,0,1.057,0.474,1.057,1.054v5.684C454.782,231.678,454.301,232.155,453.724,232.155"/>
			<path fill="#1C75BC" d="M420.701,254.24h-6.099c-0.481,0-0.876-0.395-0.876-0.88v-6.398c0-0.483,0.395-0.879,0.876-0.879h6.099
				c0.481,0,0.878,0.396,0.878,0.879v6.398C421.58,253.844,421.182,254.24,420.701,254.24"/>
			<path fill="#1C75BC" d="M444.026,257.419h-11.028c-1.087,0-1.973-0.884-1.973-1.971v-11.615c0-1.085,0.887-1.969,1.973-1.969
				h11.028c1.09,0,1.973,0.885,1.973,1.969v11.615C445.999,256.534,445.115,257.419,444.026,257.419"/>
			<path fill="#1C75BC" d="M437.946,273.199h-8.259c-0.716,0-1.303,0.587-1.303,1.306v8.684c0,0.721,0.587,1.311,1.303,1.311h8.259
				c0.721,0,1.311-0.59,1.311-1.311v-8.684C439.257,273.786,438.667,273.199,437.946,273.199"/>
			<path fill="#1C75BC" d="M419.788,266.326h-14.136c-1.113,0-2.021,0.911-2.021,2.024v3.919l-9.568,0.529v-10.851
				c0-0.818-0.673-1.49-1.495-1.49h-10.334c-0.822,0-1.49,0.672-1.49,1.49v6.33c-0.048,0.015-0.094,0.025-0.147,0.041v6.867
				c0,0.655-0.537,1.192-1.186,1.192h-5.923c-0.654,0-1.188-0.537-1.188-1.192V270.3c-14.809,2.558-31.597,0.703-65.755,4.359
				c-46.804,5.016-66.797,25.791-68.918,28.135c-0.399-0.423-0.88-0.809-1.31-1.22c-0.929-0.832-2.089-1.821-3.469-2.915
				c-1.985-1.471-4.238-2.823-6.664-4.088c-10.998-7.698-28.5-16.745-53.893-21.197c-49.153-8.62-68.941-3.533-92.65-22.189
				l3.79,17.546c0,0,23.422,9.008,48.61,9.779c26.431,0.805,47.67,1.766,62.988,9.313c-18.927-3.569-38.564-6.367-66.534-5.349
				c-25.179,0.915-50.447-6.381-62.063-10.303l0.865,7.805l2.524,18.505c10.367,1.988,21.37,3.295,32.896,3.549
				c60.151,1.334,105.022,1.603,134.712,24.792c29.358-22.928,73.583-23.452,132.715-24.743v-6.919c0-0.656,0.534-1.19,1.191-1.19
				h8.662c0.654,0,1.194,0.534,1.194,1.19v6.443c8.259-0.577,16.23-1.664,23.845-3.123l1.813-13.265h12.937
				c1.111,0,2.019-0.917,2.019-2.027V268.35C421.807,267.237,420.899,266.326,419.788,266.326 M359.021,292.729
				c0,0.656-0.531,1.192-1.186,1.192h-5.915c-0.66,0-1.191-0.537-1.191-1.192v-6.239c0-0.654,0.531-1.194,1.191-1.194h5.915
				c0.654,0,1.186,0.539,1.186,1.194V292.729z M399.481,291.669c0,0.717-0.585,1.304-1.311,1.304h-11.544
				c-0.721,0-1.308-0.587-1.308-1.304v-12.102c0-0.72,0.587-1.312,1.308-1.312h11.544c0.726,0,1.311,0.593,1.311,1.312V291.669z"/>
			<path fill="#58595B" d="M117.983,208.736c0,0,1.391,6.983,14.285,3.633c12.895-3.351,31.535-20.232,57.328-20.232
				c0,0,12.044-46.873,16.649-62.2c0,0,58.99-36.394,65.1-51.809c0,0,10.857-3.352,14.932,2.684c0,0,38.062,14.272,49.597,5.559
				l-3.391,6.032c0,0-7.466,9.387-21.042,8.043c-13.573-1.341-18.326,1.344-18.326,1.344s-4.069,26.806-21.715,38.868l16.964,48.927
				c0,0,20.361-4.025,43.44,10.054c23.074,14.07,39.915,17.393,43.987,12.031c4.072-5.362-0.547-12.031-0.547-12.031
				s8.82,5.361,10.857,8.711c2.032,3.351-3.394,6.033-9.501,16.757c-6.115,10.722-12.775,21.976-36.532,19.965
				c-23.755-2.011-52.487,0.824-81.099,10.691c-37.808,13.036-90.732,2.182-113.128-10.554
				c-22.399-12.729-36.651-26.138-36.651-31.499c0-5.359,6.108-12.733,6.108-12.733L117.983,208.736z"/>
			<path fill="#FFFFFF" d="M209.452,138.102l-11.718,54.038c0,0,9.765,11.064,31.9,11.064c22.137,0,36.458-7.812,36.458-7.812
				s-20.183,5.858-44.271,1.301c0,0,29.95-3.902,42.322-9.11c0,0-26.694,3.252-43.624,0c0,0,17.58-1.957,30.599-7.815
				c0,0-17.577,5.209-31.9,0c0,0,14.973-0.653,28.645-8.464c0,0-19.532,2.603-29.949-0.65c0,0,10.014-0.406,20.185-4.558
				c0,0-10.42,0-20.834-3.907c0,0,8.463,0,20.834-5.208c0,0-8.465,0.651-20.185-0.65c0,0,7.974-2.315,14.322-5.857
				c0,0-11.718,0.649-16.273-1.957c0,0,12.369-3.255,20.182-5.858C243.957,140.054,221.169,145.262,209.452,138.102"/>
			<path fill="#FFFFFF" d="M124.49,220.785c0,0,21.159,24.087,60.224,27.342c0,0-28.649-7.813-34.833-18.881
				c0,0,14.325,10.09,32.879,10.09c0,0-21.484-5.208-27.345-14.973c0,0,9.766,3.909,22.138,4.561c0,0-13.672-2.607-20.51-10.744
				c0,0,7.813,2.276,16.929,3.254c0,0-12.928-4.232-14.233-9.441c0,0,18.251-13.666,28.667-12.039c0,0-9.602-4.978-28.434,4.881
				C146.025,212.138,131.327,222.737,124.49,220.785"/>
			<path fill="#FFFFFF" d="M220.513,128.431c0,0,47.128-28.089,51.032-41.276c0,0,4.881,7.813,12.697,9.033
				c0,0-6.593,2.445-11.72-1.22c0,0,3.418,6.349,10.986,7.815c0,0-5.613,2.684-14.403-3.419c0,0,0.734,6.103,7.568,8.058
				c0,0-4.638,1.708-11.96-3.664l-32.372,19.941L220.513,128.431z"/>
			<path fill="#939598" d="M376.497,110.37c0,0-3.324,15.728,1.349,24.811c4.668,9.084,9.399,3.059,15.279,4.254l5.816-10.39
				c0,0-2.072,15.09,5.33,20.792c7.407,5.707,9.049,2.289,12.019-1.732c2.977-4.027,16.128-27.902,16.411-29.63
				c0.278-1.727-2.502-14.877-2.502-14.877s2.203-2.062,3.813,0.862c2.36,4.297,2.585,17.543,1.685,18.256
				c-1.565,1.248-9.893,21.057-13.757,25.486c-3.853,4.425-2.908,8.264,0.152,13.81c3.058,5.549,9.071,25.769,0.427,36.112
				c-8.636,10.34-16.606,2.222-19.106-6.784c-2.497-9.007-18.873-36.206-22.625-41.481c0,0-7.325-7.877-8.777-15.759
				c-1.45-7.881-0.032-30.071-0.032-30.071s9.845-8.901,12.5-10.109c2.652-1.207,9.319-13.387,9.319-13.387s8.446,0.96,5.496,10.31
				c0,0-2.299,13.995-7.763,14.611c0,0,6.478-15.094,4.684-19.614c-1.794-4.525-6.056,9.156-9.616,11.308
				c-3.552,2.153-9.458,9.244-9.458,9.244L376.497,110.37z"/>
			<path fill="#939598" d="M402.984,97.8c0,0-5.49-0.905-5.57-6.102l1.984-5.237c0,0,4.491-8.913,6.521-9.685
				c2.048-0.783,6.636-0.708,9.583-1.27c3.407-0.652,7.333,3.164,7.917,3.618c2.019,1.567-3.522,11.405-5.183,15.452l-5.867,1.528
				c0,0,9.194-12.774,7.626-14.927c-0.515-0.71-3.156-2.197-5.084-1.76c-2.206,0.504-6.03,0.855-7.135,1.176
				c-2.086,0.593-2.318,3.438-5.148,6.73c-2.24,2.617-0.668,7.568,1.674,6.899l6.15-5.322c0,0,0.868,1.535-0.625,3.623
				C406.404,97.31,402.984,97.8,402.984,97.8"/>
			<path fill="#939598" d="M424.426,97.953c0,0-4.692-5.605-7.33-4.938c-2.633,0.662-10.144,7.021-11.268,8.069
				c-1.127,1.045-1.925,11.02-1.538,12.447c0.379,1.423,3.621,5.02,6.716,3.614c3.095-1.411,2.849-3.701,2.849-3.701
				s-3.191,1.188-5.346,0.566c-2.147-0.622-1.773-5.065-1.709-6.694c0.053-1.632,1.479-4.947,1.479-4.947s8.382-6.219,9.912-6.382
				c1.525-0.162,4.985,3.336,4.985,3.336L424.426,97.953z"/>
			<path fill="#939598" d="M434.012,104.46c0,0-6.718-7.817-9.586-6.506c-2.879,1.307-8.548,7.624-9.45,8.571
				c-0.9,0.948-1.477,7.883-1.402,8.645c0.088,0.767,1.02,8.085,2.219,7.801c1.207-0.281,5.493,1.507,6.633-3.02
				c1.146-4.524,1.586-7.664,4.558-8.752c0,0-2.232-1.384-3.8-0.138c-1.565,1.25-3.469,8.791-3.469,8.791l-3.18,0.645
				c0,0-1.114-8.304,1.316-12.347c2.438-4.039,5.706-7.403,7.418-6.578c0.697,0.332,5.22,3.871,6.478,4.258
				C433.585,106.398,434.012,104.46,434.012,104.46"/>
			<path fill="#939598" d="M396.204,94.351l-34.238,52.724c0,0-2.334,4.3-1.485,6.15c0.849,1.853,3.888,4.386,3.888,4.386
				s1.469,0.286,2.83-0.999c2.254-2.13,4.852-8.143,4.852-8.143l31.653-53.348l-5.22-3.017L396.204,94.351z"/>
			<path fill="#939598" d="M411.483,78.485c1.007,0.106,1.858-0.831,2.667-0.453l30.489-54.351l-2.126-2.033l-5.637,8.47
				l-34.332,53.305c0,0-0.459,0.876-0.903,1.995C403.264,83.628,408.487,78.17,411.483,78.485"/>
			<path fill="#939598" d="M435.705,187.071c0,0-0.438,27.163-5.285,34.708c-4.836,7.54-7.477-2.792-12.943-1.903
				c-5.466,0.89-13.303-11.773-13.303-11.773s15.367,7.951,21.616,0.568C432.039,201.287,435.705,187.071,435.705,187.071"/>
			<path fill="#939598" d="M377.52,158.609c0,0-5.832,6.079,1.797,17.227c1.509,2.204,7.18,6.789,9.877,10.363
				c2.702,3.58,4.086,6.373,4.086,6.373s3.835-1.871-3.792-14.876C386.353,172.353,378.102,163.417,377.52,158.609"/>
			<path fill="#939598" d="M117.983,208.736c0,0,1.391,6.983,14.285,3.633c12.895-3.351,31.535-20.232,57.328-20.232
				c0,0,12.044-46.873,16.649-62.2c0,0,58.99-36.394,65.1-51.809c0,0,10.857-3.352,14.932,2.684c0,0,38.062,14.272,49.597,5.559
				l-3.391,6.032c0,0-7.466,9.387-21.042,8.043c-13.573-1.341-18.326,1.344-18.326,1.344s-4.069,26.806-21.715,38.868l16.964,48.927
				c0,0,20.361-4.025,43.44,10.054c23.074,14.07,39.915,17.393,43.987,12.031c4.072-5.362-0.547-12.031-0.547-12.031
				s8.82,5.361,10.857,8.711c2.032,3.351-3.394,6.033-9.501,16.757c-6.115,10.722-12.775,21.976-36.532,19.965
				c-23.755-2.011-52.487,0.824-81.099,10.691c-37.808,13.036-90.732,2.182-113.128-10.554
				c-22.399-12.729-36.651-26.138-36.651-31.499c0-5.359,6.108-12.733,6.108-12.733L117.983,208.736z"/>
			<path fill="#082E3F" d="M209.452,138.102l-11.718,54.038c0,0,9.765,11.064,31.9,11.064c22.137,0,36.458-7.812,36.458-7.812
				s-20.183,5.858-44.271,1.301c0,0,29.95-3.902,42.322-9.11c0,0-26.694,3.252-43.624,0c0,0,17.58-1.957,30.599-7.815
				c0,0-17.577,5.209-31.9,0c0,0,14.973-0.653,28.645-8.464c0,0-19.532,2.603-29.949-0.65c0,0,10.014-0.406,20.185-4.558
				c0,0-10.42,0-20.834-3.907c0,0,8.463,0,20.834-5.208c0,0-8.465,0.651-20.185-0.65c0,0,7.974-2.315,14.322-5.857
				c0,0-11.718,0.649-16.273-1.957c0,0,12.369-3.255,20.182-5.858C243.957,140.054,221.169,145.262,209.452,138.102"/>
			<path fill="#082E3F" d="M124.49,220.785c0,0,21.159,24.087,60.224,27.342c0,0-28.649-7.813-34.833-18.881
				c0,0,14.325,10.09,32.879,10.09c0,0-21.484-5.208-27.345-14.973c0,0,9.766,3.909,22.138,4.561c0,0-13.672-2.607-20.51-10.744
				c0,0,7.813,2.276,16.929,3.254c0,0-12.928-4.232-14.233-9.441c0,0,18.251-13.666,28.667-12.039c0,0-9.602-4.978-28.434,4.881
				C146.025,212.138,131.327,222.737,124.49,220.785"/>
			<path fill="#082E3F" d="M220.513,128.431c0,0,47.128-28.089,51.032-41.276c0,0,4.881,7.813,12.697,9.033
				c0,0-6.593,2.445-11.72-1.22c0,0,3.418,6.349,10.986,7.815c0,0-5.613,2.684-14.403-3.419c0,0,0.734,6.103,7.568,8.058
				c0,0-4.638,1.708-11.96-3.664l-32.372,19.941L220.513,128.431z"/>
			<path fill="#939598" d="M432.785,103.123c-2.071-2.17-6.251-6.132-8.359-5.168c-0.001,0-0.001,0.001-0.003,0.001l0.003-0.003
				c0,0-3.046-3.634-5.609-4.7c2.079-4.545,6.427-12.713,4.602-14.13c-0.581-0.45-4.455-4.212-7.846-3.625l29.067-51.817
				l-2.126-2.033l-5.637,8.47l-29.859,46.361c-0.411,0.084-0.792,0.178-1.1,0.296c-1.684,0.64-5.052,6.867-6.155,8.977
				c-0.903-4.624-5.965-5.22-5.965-5.22s-6.668,12.18-9.319,13.387c-2.654,1.208-12.5,10.109-12.5,10.109
				s-1.207,18.907-0.251,28.012l-9.762,15.033c0,0-2.334,4.3-1.485,6.15c0.849,1.853,3.888,4.386,3.888,4.386
				s1.469,0.286,2.83-0.999c2.254-2.13,4.852-8.143,4.852-8.143l3.445-5.806c2.485,4.172,5.292,7.196,5.292,7.196
				c3.752,5.275,20.129,32.474,22.625,41.481c2.499,9.005,10.47,17.124,19.106,6.784c8.644-10.343,2.63-30.563-0.427-36.112
				c-3.06-5.545-4.005-9.385-0.152-13.81c3.864-4.429,12.192-24.237,13.757-25.486c0.9-0.713,0.676-13.959-1.685-18.256
				C433.625,103.757,433.203,103.347,432.785,103.123z M422.811,98.967c-3.001,2.234-7.08,6.766-7.834,7.558
				c-0.665,0.7-1.151,4.658-1.331,6.991c-0.722,0.242-3.298,1.024-5.136,0.494c-2.147-0.622-1.773-5.065-1.709-6.694
				c0.053-1.632,1.479-4.947,1.479-4.947s8.382-6.219,9.912-6.382C419.415,95.857,421.884,98.083,422.811,98.967z M376.497,110.37
				l0.644-3.978c0,0,5.907-7.092,9.458-9.244c3.559-2.152,7.821-15.833,9.616-11.308c0.838,2.114-0.131,6.539-1.402,10.652
				l-19.285,29.697C374.818,118.327,376.497,110.37,376.497,110.37z M432.701,118.475c-0.283,1.728-13.434,25.603-16.411,29.63
				c-2.969,4.021-4.612,7.439-12.019,1.732c-7.402-5.702-5.33-20.792-5.33-20.792l-5.816,10.39
				c-5.445-1.106-9.904,3.968-14.241-2.483l23.345-39.344c0.453,0.139,0.754,0.192,0.754,0.192s3.421-0.491,6.844-5.278
				c1.493-2.087,0.625-3.623,0.625-3.623l-6.15,5.322c-2.342,0.669-3.915-4.282-1.674-6.899c2.83-3.292,3.063-6.137,5.148-6.73
				c1.105-0.32,4.929-0.672,7.135-1.176c1.928-0.437,4.569,1.05,5.084,1.76c1.362,1.87-5.397,11.753-7.191,14.313
				c-2.98,2.13-6.265,4.931-6.977,5.596c-1.127,1.045-1.925,11.02-1.538,12.447c0.379,1.423,3.621,5.02,6.716,3.614
				c1.521-0.694,2.234-1.599,2.566-2.341c-0.004,0.162-0.004,0.296,0.003,0.366c0.088,0.767,1.02,8.085,2.219,7.801
				c1.207-0.281,5.493,1.507,6.633-3.02c1.146-4.524,1.586-7.664,4.558-8.752c0,0-2.232-1.384-3.8-0.138
				c-1.565,1.25-3.469,8.791-3.469,8.791l-3.18,0.645c0,0-1.114-8.304,1.316-12.347c2.438-4.039,5.706-7.403,7.418-6.578
				c0.545,0.26,3.426,2.475,5.259,3.617C431.254,108.73,432.919,117.118,432.701,118.475z"/>
			<path fill="#939598" d="M435.705,187.071c0,0-0.438,27.163-5.285,34.708c-4.836,7.54-7.477-2.792-12.943-1.903
				c-5.466,0.89-13.303-11.773-13.303-11.773s15.367,7.951,21.616,0.568C432.039,201.287,435.705,187.071,435.705,187.071"/>
			<path fill="#939598" d="M377.52,158.609c0,0-5.832,6.079,1.797,17.227c1.509,2.204,7.18,6.789,9.877,10.363
				c2.702,3.58,4.086,6.373,4.086,6.373s3.835-1.871-3.792-14.876C386.353,172.353,378.102,163.417,377.52,158.609"/>
		</g>
		<g>
			<path fill="#FFFFFF" d="M98.262,489.43h7.716l6.596,22.525l7.28-22.65h6.409l7.343,22.65l6.72-22.525h7.529l-10.765,33.104h-6.72
				l-7.343-22.464l-7.405,22.464h-6.72L98.262,489.43z"/>
			<path fill="#FFFFFF" d="M152.831,517.119l18.979-21.529h-18.294v-6.16h27.877v5.164l-18.979,21.53h18.979v6.16h-28.562V517.119z"
				/>
			<path fill="#FFFFFF" d="M189.169,489.43h7.529v7.404c2.054-4.916,5.849-8.276,11.636-8.027v7.965h-0.436
				c-6.596,0-11.201,4.294-11.201,13.006v12.507h-7.529V489.43z"/>
			<path fill="#FFFFFF" d="M212.316,505.919v-0.124c0-10.89,7.405-17.05,15.246-17.05c5.414,0,8.836,2.737,11.2,5.786v-17.672h7.529
				v45.425h-7.529v-5.476c-2.427,3.422-5.849,6.16-11.2,6.16C219.845,522.969,212.316,516.809,212.316,505.919z M238.886,505.919
				v-0.124c0-6.348-4.48-10.517-9.521-10.517c-5.165,0-9.458,3.982-9.458,10.517v0.124c0,6.347,4.355,10.516,9.458,10.516
				C234.406,516.435,238.886,512.204,238.886,505.919z"/>
			<path fill="#FFFFFF" d="M257.241,513.199V495.9h-4.169v-6.471h4.169v-9.023h7.529v9.023h8.836v6.471h-8.836v16.116
				c0,2.925,1.493,4.107,4.045,4.107c1.68,0,3.173-0.373,4.666-1.12v6.16c-1.866,1.058-3.982,1.68-6.782,1.68
				C261.161,522.844,257.241,520.417,257.241,513.199z"/>
			<path fill="#FFFFFF" d="M301.295,522.284v-4.045c-2.24,2.676-5.662,4.729-10.641,4.729c-6.223,0-11.698-3.547-11.698-10.143
				v-0.125c0-7.28,5.662-10.765,13.316-10.765c3.982,0,6.533,0.56,9.085,1.369v-0.622c0-4.543-2.862-7.032-8.09-7.032
				c-3.671,0-6.409,0.81-9.396,2.054l-2.054-6.036c3.609-1.617,7.156-2.737,12.508-2.737c9.707,0,14.436,5.103,14.436,13.876v19.477
				H301.295z M301.481,508.532c-1.929-0.746-4.604-1.307-7.529-1.307c-4.729,0-7.529,1.929-7.529,5.103v0.124
				c0,3.111,2.801,4.854,6.348,4.854c4.978,0,8.711-2.801,8.711-6.907V508.532z"/>
			<path fill="#FFFFFF" d="M318.156,476.859h7.529v45.425h-7.529V476.859z"/>
			<path fill="#FFFFFF" d="M333.712,505.981v-0.125c0-9.396,6.657-17.111,16.054-17.111c10.454,0,15.743,8.213,15.743,17.672
				c0,0.685-0.063,1.369-0.125,2.115H341.24c0.81,5.352,4.605,8.338,9.459,8.338c3.671,0,6.284-1.368,8.898-3.92l4.418,3.92
				c-3.111,3.734-7.405,6.161-13.441,6.161C341.054,523.031,333.712,516.124,333.712,505.981z M358.042,503.555
				c-0.498-4.854-3.36-8.649-8.339-8.649c-4.604,0-7.84,3.547-8.524,8.649H358.042z"/>
			<path fill="#FFFFFF" d="M370.422,517.99l3.36-5.103c3.547,2.676,7.405,4.045,10.766,4.045c3.235,0,5.103-1.369,5.103-3.547
				v-0.124c0-2.552-3.485-3.423-7.343-4.604c-4.854-1.369-10.268-3.36-10.268-9.646v-0.124c0-6.223,5.165-10.019,11.698-10.019
				c4.107,0,8.587,1.432,12.072,3.733l-2.987,5.352c-3.173-1.929-6.533-3.111-9.271-3.111c-2.925,0-4.604,1.369-4.604,3.298v0.125
				c0,2.364,3.547,3.359,7.404,4.604c4.792,1.493,10.205,3.671,10.205,9.582v0.125c0,6.907-5.351,10.329-12.196,10.329
				C379.694,522.906,374.529,521.227,370.422,517.99z"/>
		</g>
	</g>
</g>
<g>
</g>
<g>
</g>
<g>
</g>
<g>
</g>
<g>
</g>
<g>
</g>
<g>
</g>
<g>
</g>
<g>
</g>
<g>
</g>
<g>
</g>
<g>
</g>
<g>
</g>
<g>
</g>
<g>
</g>
</svg>
